<svg viewBox="0 0 18 18" fill="none" xmlns="http://www.w3.org/2000/svg">
<path fill-rule="evenodd" clip-rule="evenodd" d="M4.20234 8.3122L7.2546 10.4088L5.96006 11.6966C5.92474 11.7302 5.89652 11.7704 5.87703 11.8148C5.85754 11.8593 5.84719 11.9072 5.84656 11.9557C5.84594 12.0042 5.85507 12.0523 5.87341 12.0973C5.89175 12.1422 5.91894 12.1831 5.95338 12.2176C5.98783 12.252 6.02885 12.2793 6.07404 12.2978C6.11923 12.3163 6.16769 12.3257 6.21659 12.3255C6.26549 12.3252 6.31385 12.3153 6.35885 12.2963C6.40385 12.2774 6.44458 12.2497 6.47867 12.2149L7.87218 10.8329L8.79459 11.4689C8.85621 11.5113 8.92942 11.534 9.00441 11.534C9.0794 11.534 9.15261 11.5113 9.21423 11.4689L10.1366 10.8329L11.5262 12.2149C11.5605 12.2489 11.6012 12.2759 11.6461 12.2943C11.6909 12.3127 11.7389 12.3222 11.7875 12.3222C11.836 12.3222 11.884 12.3127 11.9289 12.2943C11.9737 12.2759 12.0144 12.2489 12.0488 12.2149C12.0831 12.1809 12.1103 12.1405 12.1289 12.096C12.1474 12.0515 12.157 12.0039 12.157 11.9558C12.157 11.9076 12.1474 11.86 12.1289 11.8155C12.1103 11.7711 12.0831 11.7307 12.0488 11.6966L10.7542 10.4088L13.8065 8.3122V12.3484C13.8075 12.5077 13.7767 12.6656 13.7159 12.813C13.655 12.9604 13.5653 13.0944 13.4519 13.2072C13.3385 13.32 13.2037 13.4094 13.0553 13.4702C12.9069 13.5311 12.7478 13.5621 12.5872 13.5616H5.44146C5.28085 13.5621 5.12173 13.5311 4.9733 13.4702C4.82487 13.4094 4.69007 13.32 4.57669 13.2072C4.46331 13.0944 4.37359 12.9604 4.31274 12.813C4.25188 12.6656 4.22109 12.5077 4.22213 12.3484L4.20234 8.3122ZM7.02499 7.24819C6.93342 7.2576 6.84862 7.30033 6.78697 7.36813C6.72531 7.43594 6.69119 7.524 6.69119 7.6153C6.69119 7.7066 6.72531 7.79466 6.78697 7.86246C6.84862 7.93026 6.93342 7.973 7.02499 7.9824H10.9838C11.0357 7.98772 11.088 7.98219 11.1376 7.96617C11.1871 7.95014 11.2327 7.92398 11.2714 7.88938C11.3101 7.85477 11.341 7.81249 11.3622 7.76528C11.3833 7.71807 11.3943 7.66697 11.3943 7.6153C11.3943 7.56362 11.3833 7.51253 11.3622 7.46531C11.341 7.4181 11.3101 7.37582 11.2714 7.34122C11.2327 7.30661 11.1871 7.28045 11.1376 7.26442C11.088 7.2484 11.0357 7.24287 10.9838 7.24819H7.02499ZM12.5674 7.07936L13.5016 7.63689L12.5674 8.28079V7.07936ZM5.44146 7.07936V8.25724L4.51509 7.63689L5.44146 7.07936ZM6.97748 5.26151C6.87774 5.26776 6.78458 5.31305 6.71851 5.38742C6.65243 5.46179 6.61885 5.55914 6.62515 5.65806C6.63145 5.75699 6.67711 5.84938 6.7521 5.91491C6.82708 5.98044 6.92524 6.01375 7.02499 6.0075H9.00441C9.10415 6.0075 9.19981 5.9682 9.27034 5.89825C9.34087 5.8283 9.3805 5.73343 9.3805 5.63451C9.3805 5.53558 9.34087 5.44071 9.27034 5.37076C9.19981 5.30081 9.10415 5.26151 9.00441 5.26151H6.97748ZM10.5642 4.66865L11.3995 5.65414H10.5642V4.66865ZM6.62911 4.0326H9.83972V6.04676C9.83972 6.14464 9.87893 6.23852 9.94872 6.30773C10.0185 6.37695 10.1132 6.41583 10.2119 6.41583H11.831V8.79513L9.00441 10.719L6.18968 8.79513V4.47626C6.18939 4.42062 6.20047 4.3655 6.22224 4.31422C6.24402 4.26293 6.27603 4.21655 6.31636 4.17787C6.35404 4.1318 6.40175 4.09479 6.45592 4.06963C6.51009 4.04447 6.5693 4.03181 6.62911 4.0326ZM10.1921 3.29839H6.62911C6.31412 3.29839 6.01204 3.42249 5.78931 3.64338C5.56658 3.86428 5.44146 4.16387 5.44146 4.47626V6.24307L3.66394 7.30316C3.60522 7.33305 3.55558 7.3779 3.5201 7.43309C3.48462 7.48829 3.46458 7.55185 3.46204 7.61726V12.3484C3.46725 12.8656 3.6781 13.3599 4.04875 13.7238C4.4194 14.0878 4.91989 14.2919 5.44146 14.2919H12.607C13.1216 14.2817 13.6121 14.073 13.9742 13.7102C14.3364 13.3474 14.5417 12.8589 14.5468 12.3484V7.61726C14.5464 7.54682 14.5257 7.47797 14.4871 7.41884C14.4485 7.3597 14.3937 7.31275 14.329 7.28353L12.5674 6.22344V6.14099C12.5826 6.08169 12.5823 6.01949 12.5663 5.96037C12.5504 5.90124 12.5194 5.84717 12.4763 5.80333L10.4969 3.44759C10.4626 3.3995 10.4168 3.36067 10.3636 3.33461C10.3103 3.30856 10.2514 3.29611 10.1921 3.29839Z" fill="#1A74BB"/>
</svg>
