<svg viewBox="0 0 18 18" fill="none" xmlns="http://www.w3.org/2000/svg">
<path d="M11.8318 8.75241C11.7592 8.69431 11.672 8.64589 11.5945 8.59262C11.5412 8.52968 11.4734 8.4861 11.3911 8.45704C10.8729 8.16167 10.2868 7.98736 9.70559 7.98736C9.58451 7.98736 9.47311 8.03578 9.38593 8.1181L8.79503 8.71368L8.1993 8.12294C8.11696 8.03578 8.00072 7.9922 7.87963 7.9922C7.29358 7.9922 6.69784 8.17136 6.1796 8.47157C6.10694 8.49578 6.04882 8.53936 6.00039 8.59262C5.91805 8.64589 5.83087 8.69431 5.75338 8.75241C5.14795 9.22694 4.68298 9.91936 4.68298 10.728V12.0983C4.68298 13.6091 5.91321 14.8341 7.42435 14.8341H10.1657C11.6769 14.8341 12.9071 13.6091 12.9071 12.0983V10.728C12.9022 9.91936 12.4373 9.22694 11.8318 8.75241ZM9.8509 8.95094C10.0931 8.97031 10.3498 9.01873 10.5968 9.11073L10.0737 9.98715L9.44405 9.35768L9.8509 8.95094ZM8.15086 9.35768L7.52122 9.98715L6.99813 9.11073C7.24514 9.02357 7.50185 8.97031 7.74402 8.95094L8.15086 9.35768ZM11.9917 12.0983C11.9917 13.1152 11.1828 13.919 10.1657 13.919H7.42435C6.40239 13.919 5.59839 13.1152 5.59839 12.0983V10.728C5.59839 10.3116 5.83571 9.90968 6.2135 9.57557L7.03688 10.9604C7.18702 11.2171 7.54059 11.2606 7.7537 11.0524L8.79503 10.0017L9.84121 11.0476C10.0543 11.2558 10.403 11.2122 10.558 10.9556L11.3814 9.57073C11.7592 9.90484 11.9965 10.3067 11.9965 10.7232V12.0983H11.9917Z" fill="#1A74BB"/>
<path d="M8.7953 7.07704C9.92382 7.07704 10.8538 6.15219 10.8538 5.02398C10.8538 3.89577 9.92866 2.97092 8.7953 2.97092C7.66679 2.97092 6.7417 3.89577 6.7417 5.02398C6.7417 6.15219 7.66195 7.07704 8.7953 7.07704ZM8.7953 3.88124C9.42979 3.88124 9.93835 4.38966 9.93835 5.02398C9.93835 5.6583 9.42979 6.16672 8.7953 6.16672C8.16082 6.16672 7.6571 5.6583 7.6571 5.02398C7.6571 4.38966 8.15597 3.88124 8.7953 3.88124Z" fill="#1A74BB"/>
<path d="M10.6198 11.6383H10.165C9.55536 11.6383 9.55536 12.5535 10.165 12.5535H10.6198C11.2246 12.5535 11.2246 11.6383 10.6198 11.6383Z" fill="#1A74BB"/>
</svg>
