<svg viewBox="0 0 18 18" fill="none" xmlns="http://www.w3.org/2000/svg">
<path fill-rule="evenodd" clip-rule="evenodd" d="M12.9736 8.10769H13.0837C13.1771 8.10719 13.2697 8.12525 13.3561 8.16084C13.4425 8.19642 13.521 8.24882 13.587 8.315C13.6531 8.38118 13.7054 8.45983 13.7409 8.5464C13.7764 8.63296 13.7944 8.72573 13.7939 8.81932V9.69458C13.7944 9.7417 13.7855 9.78844 13.7678 9.83207C13.75 9.8757 13.7237 9.91534 13.6905 9.94866C13.6572 9.98198 13.6177 10.0083 13.5741 10.0261C13.5306 10.0439 13.4839 10.0528 13.4369 10.0523H12.9736C12.9736 9.40536 12.9736 8.75843 12.9736 8.11531V8.10769ZM5.2866 8.10769H5.40433C5.40433 8.75463 5.40433 9.40156 5.40433 10.0523H4.92579C4.87877 10.0528 4.83212 10.0439 4.78858 10.0261C4.74503 10.0083 4.70547 9.98198 4.67222 9.94866C4.63897 9.91534 4.61269 9.8757 4.59493 9.83207C4.57717 9.78844 4.56828 9.7417 4.56879 9.69458V8.81932C4.56829 8.72573 4.58631 8.63296 4.62183 8.5464C4.65734 8.45983 4.70963 8.38118 4.77568 8.315C4.84173 8.24882 4.92023 8.19642 5.00662 8.16084C5.09301 8.12525 5.18559 8.10719 5.279 8.10769H5.2866ZM10.8467 7.79564L10.9873 8.22186C11.0117 8.29207 11.0574 8.35289 11.118 8.39586C11.1786 8.43883 11.251 8.46181 11.3253 8.4616H12.2823V10.5356L10.2543 11.5555H8.79586C8.70802 11.5646 8.62666 11.606 8.56751 11.6717C8.50837 11.7374 8.47563 11.8228 8.47563 11.9113C8.47563 11.9998 8.50837 12.0851 8.56751 12.1508C8.62666 12.2166 8.70802 12.258 8.79586 12.2671H10.315C10.3705 12.2676 10.4252 12.2545 10.4745 12.229L12.0165 11.4679C11.8432 11.7734 11.6153 12.0442 11.3443 12.2671C10.7385 12.7845 9.97155 13.0739 9.17565 13.0853C8.38632 13.0695 7.62677 12.7804 7.02604 12.2671C6.7619 12.0707 6.54261 11.82 6.38281 11.532C6.22301 11.2439 6.12637 10.925 6.09935 10.5965V8.4616H10.1669C10.2229 8.46213 10.2781 8.44887 10.3278 8.42299C10.3775 8.39711 10.42 8.35941 10.4518 8.31319L10.8467 7.79564ZM9.17565 5.37155C9.871 5.36986 10.5464 5.60454 11.0913 6.03725C11.6363 6.46997 12.0187 7.07511 12.176 7.75378H11.5721L11.2987 6.93941C11.2741 6.86596 11.2263 6.80251 11.1626 6.75859C11.0989 6.71467 11.0227 6.69265 10.9455 6.69586C10.8926 6.69817 10.8409 6.71237 10.7942 6.7374C10.7475 6.76243 10.7071 6.79766 10.6758 6.84047L9.99221 7.7652H6.1943C6.34987 7.08824 6.72882 6.48366 7.26986 6.04928C7.8109 5.61489 8.48237 5.37611 9.17565 5.37155ZM8.21858 3.84936H10.1175C10.3978 3.84835 10.6755 3.90286 10.9347 4.00975C11.1938 4.11663 11.4293 4.27379 11.6277 4.47218C11.826 4.67057 11.9833 4.90629 12.0904 5.16578C12.1976 5.42527 12.2525 5.70342 12.252 5.98423V6.26584C11.9004 5.77404 11.437 5.37329 10.9 5.09682C10.363 4.82036 9.76798 4.67615 9.16426 4.67615C8.56054 4.67615 7.96552 4.82036 7.42854 5.09682C6.89155 5.37329 6.42809 5.77404 6.07656 6.26584V5.97282C6.07604 5.69039 6.13154 5.41067 6.23986 5.14992C6.34818 4.88917 6.50714 4.6526 6.70751 4.45396C6.90788 4.25531 7.14566 4.09856 7.40702 3.9928C7.66839 3.88705 7.94813 3.83441 8.22998 3.83794L8.21858 3.84936ZM8.21858 3.13773C7.46742 3.13873 6.74714 3.43738 6.21492 3.96852C5.68271 4.49966 5.38176 5.22017 5.37775 5.97282V7.39607H5.279C4.90259 7.39707 4.54188 7.54735 4.27572 7.81404C4.00956 8.08073 3.85958 8.44216 3.85858 8.81932V9.69458C3.86057 9.97757 3.97365 10.2484 4.17336 10.4485C4.37307 10.6486 4.64337 10.7619 4.92579 10.7639H5.40053C5.44933 11.1687 5.57827 11.5596 5.77978 11.9138C5.9813 12.2679 6.25134 12.5782 6.57409 12.8265C7.30373 13.4398 8.22332 13.7801 9.17565 13.7893C10.1327 13.78 11.0567 13.4369 11.7886 12.8189C12.1134 12.5733 12.3856 12.2649 12.5892 11.9119C12.7927 11.5589 12.9234 11.1685 12.9736 10.7639H13.4293C13.7114 10.7619 13.9813 10.6485 14.1804 10.4483C14.3795 10.2481 14.4917 9.97722 14.4927 9.69458V8.81932C14.4917 8.44282 14.3423 8.08196 14.0769 7.81538C13.8116 7.54879 13.4519 7.39808 13.0761 7.39607H12.9736V5.97282C12.9706 5.22082 12.6711 4.50048 12.1404 3.96874C11.6097 3.43699 10.8908 3.13693 10.1403 3.13393L8.21858 3.13773Z" fill="#1A74BB"/>
</svg>
