<svg xmlns="http://www.w3.org/2000/svg" width="14" height="14"><defs><clipPath id="a"><path fill="#fff" d="M4.174 4.219l-1.855-.002a4.497 4.497 0 011.414-2.99A4.503 4.503 0 016.828 0c1.157 0 2.257.436 3.098 1.226a4.499 4.499 0 011.416 2.989H9.486c-.255-1.397-1.373-2.41-2.658-2.41-1.283 0-2.4 1.014-2.654 2.41zm2.654 4.825a4.528 4.528 0 01-4.429-3.62h1.775c.255 1.4 1.37 2.413 2.654 2.413 1.284 0 2.403-1.014 2.662-2.412h1.77a4.533 4.533 0 01-1.55 2.583 4.537 4.537 0 01-2.882 1.036z"/></clipPath><clipPath id="b"><path fill="#fff" d="M9.483 6.571V4.16h1.869v2.41z"/></clipPath></defs><path fill="none" stroke="#F10000" stroke-miterlimit="20" stroke-width="6" d="M4.174 4.219l-1.855-.002a4.497 4.497 0 011.414-2.99A4.503 4.503 0 016.828 0c1.157 0 2.257.436 3.098 1.226a4.499 4.499 0 011.416 2.989H9.486c-.255-1.397-1.373-2.41-2.658-2.41-1.283 0-2.4 1.014-2.654 2.41zm2.654 4.825a4.528 4.528 0 01-4.429-3.62h1.775c.255 1.4 1.37 2.413 2.654 2.413 1.284 0 2.403-1.014 2.662-2.412h1.77a4.533 4.533 0 01-1.55 2.583 4.537 4.537 0 01-2.882 1.036z" clip-path="url(&quot;#a&quot;)"/><path fill="none" stroke="#F10000" stroke-miterlimit="20" stroke-width="6" d="M9.483 6.571v0V4.16v0h1.869v2.41z" clip-path="url(&quot;#b&quot;)"/><path fill="#F10000" d="M.5 14V5h13v9z"/><path fill="#fff" d="M6.5 7h1a1 1 0 011 1v4a1 1 0 01-1 1h-1a1 1 0 01-1-1V8a1 1 0 011-1z"/></svg>